<svg id="Layer_1" data-name="Layer 1" xmlns="http://www.w3.org/2000/svg" xmlns:xlink="http://www.w3.org/1999/xlink" viewBox="0 0 100 100"><defs><style>.cls-1{fill:url(#linear-gradient);}.cls-2{fill:url(#linear-gradient-2);}.cls-3{fill:url(#linear-gradient-3);}.cls-4{fill:url(#linear-gradient-5);}</style><linearGradient id="linear-gradient" x1="40.01" y1="48.22" x2="40.05" y2="48.24" gradientUnits="userSpaceOnUse"><stop offset="0" stop-color="#3bbf7f"/><stop offset="1" stop-color="#30bb79"/></linearGradient><linearGradient id="linear-gradient-2" x1="-21.48" y1="10.38" x2="120.6" y2="50.22" xlink:href="#linear-gradient"/><linearGradient id="linear-gradient-3" x1="-16.78" y1="-6.37" x2="125.29" y2="33.47" xlink:href="#linear-gradient"/><linearGradient id="linear-gradient-5" x1="24.38" y1="46.55" x2="77.9" y2="61.56" xlink:href="#linear-gradient"/></defs><path class="cls-1" d="M40,48.25h0v0S40,48.24,40,48.25Z"/><path class="cls-2" d="M41.34,22.29a.18.18,0,0,1,0,.2,28.42,28.42,0,0,0-3,5.92,14.31,14.31,0,0,0-.53,2.07,55.4,55.4,0,0,0-.67,9.74l0,.73c0,.36,0,.71,0,1.09v.07c0,.28,0,.57,0,.85v.19l0,.48c-.61-.14-1-.24-1-.24-23-5-11.93-37-11.93-37s3.1,6.47,8.4,8.57C37.53,16.86,40.72,21.37,41.34,22.29Z"/><path class="cls-3" d="M41.18.88,36.74,6.81a6.69,6.69,0,0,0,0,7c2.23,3.53,6.71,6.35,6.71,6.35a28.24,28.24,0,0,0,5.11-6.6,6,6,0,0,0-.37-6.45L42.91,1.11S41.91-.09,41.18.88Z"/><path class="cls-1" d="M40,48.25h0v0S40,48.24,40,48.25Z"/><path class="cls-4" d="M78.29,60.2c-.12.44-.24.73-.76.78-2,.22-3.74,1-4.27,3.14L64.45,99.44H63.22L55.67,85.79,47.53,71.08s-3.31-5.62-4.35-6.8c-.32-.38-.69-.78-1.09-1.2s-1-1-1.49-1.48-1-.9-1.53-1.35a21.9,21.9,0,0,0-5.88-3.55c.13.1,2.42,1.87,4.76,4l.35.32a32.43,32.43,0,0,1,3.63,3.81l.18.24a.51.51,0,0,1,.07.1,2.6,2.6,0,0,1,.26,2.09s0,0,0,0c-2.09,8.42-7,28.08-7,28.26-.53,2.13,1.8,2.92,3.65,3.14.5.06.49.34.37.79a37.32,37.32,0,0,0-11.17,0c.11-.45.24-.73.76-.79,2-.22,4.74-1,5.27-3.14l6.61-26.51v0c.16-.67-.32-.65-.45-.63h0a6,6,0,0,1-3.15-.76l-.3-.16c-.81-.56-5.05-3.53-7.22-7-2.39-3.86-7.56-6-7.56-6s13.73-3.9,20.63,4.32c0-.07-.16-.5-.38-1.24h0A71.45,71.45,0,0,1,39.67,44.1c0-.09,0-.13,0-.13l-.06-1v-.1c0-.31,0-.63,0-.94s0-.76,0-1.13v-.64a53.43,53.43,0,0,1,.63-9.3,12.1,12.1,0,0,1,.42-1.65c.8-2.21,3.49-8.43,9.12-11.58,6.92-3.86,12-12.49,12-12.49a102.76,102.76,0,0,1,.07,22.63A8.92,8.92,0,0,1,61.55,29C58.25,41.3,49.89,44,43.7,44.25c0,0,.43,3.63,1.2,7l.15.48a0,0,0,0,0,0,0c.43,1.37.9,2.77,1.4,4.21.43,1.21.89,2.45,1.37,3.7.13.33.92,1.93.92,1.93L65.33,91.41l6.81-27.29C72.67,62,71,61.2,69.1,61c-.49,0-.47-.34-.36-.78A27.34,27.34,0,0,0,78.29,60.2Z"/></svg>